<svg width="38" height="24" viewBox="0 0 38 24" fill="none" xmlns="http://www.w3.org/2000/svg">
<g clip-path="url(#clip0_4547_5147)">
<path d="M15.3167 22.9736V17.5962C12.8981 14.7929 12.3894 10.0898 12.369 9.88894C12.1006 8.43154 10.4056 7.28049 10.3886 7.26898C10.3685 7.25538 10.3496 7.23933 10.3333 7.22111C10.0973 6.9591 9.80907 6.69862 9.71607 6.66372C9.12624 6.44196 7.13532 5.66843 6.12095 4.9677C5.9089 4.86861 5.05213 4.52019 4.31896 4.9658C4.27721 4.99245 4.2297 5.01793 4.18101 5.04114C4.17132 5.04785 3.44784 5.49037 3.90099 7.10896C4.0679 7.44895 4.87169 8.89528 6.71662 9.49555C7.55595 9.77044 8.01412 10.6711 7.73876 11.5033C7.52132 12.1581 6.90975 12.5978 6.21679 12.5978C6.04677 12.5978 5.87802 12.5708 5.7154 12.5173C2.25047 11.3873 0.965219 8.39265 0.912413 8.26581C0.891126 8.21459 0.873402 8.16499 0.857962 8.11386C-0.154309 4.74612 1.54527 2.82236 2.70874 2.21647C4.65334 1.06451 6.80222 1.68328 7.76288 2.23197C7.81888 2.26397 7.87223 2.29942 7.92477 2.33832C8.3516 2.65536 9.77463 3.2861 10.8486 3.68855C10.8517 3.68973 10.8562 3.69163 10.8613 3.6939C11.9795 3.59925 13.6831 2.53569 13.7005 2.52472C15.4036 1.11964 18.8515 1.06306 18.9975 1.06134" stroke="#A03259" stroke-linecap="round" stroke-linejoin="round"/>
<path d="M6.28594 9.33214C6.76065 9.02552 7.34051 8.85852 7.9424 8.85852C9.45587 8.85852 10.6873 9.90803 10.6873 11.198C10.6873 12.4879 9.45587 13.5374 7.9424 13.5374C7.02286 13.5374 6.19175 13.1543 5.68945 12.5379" stroke="#A03259" stroke-linecap="round" stroke-linejoin="round"/>
<path d="M12.4567 11.2985C12.0646 11.2792 10.7771 11.3075 10.7644 11.3081H10.7578" stroke="#A03259" stroke-linecap="round" stroke-linejoin="round"/>
<path d="M19.0039 1.06152C19.1499 1.06325 22.5971 1.11973 24.3304 2.54693V2.54675C24.3347 2.54675 26.0254 3.59916 27.1379 3.69381C27.1448 3.69091 27.1518 3.68828 27.1592 3.68592C28.2253 3.28592 29.6491 2.65518 30.076 2.33832C30.1259 2.3006 30.1804 2.2647 30.236 2.23252C31.199 1.68338 33.3483 1.06406 35.3064 2.22427C36.4555 2.82246 38.1545 4.7464 37.1428 8.11341C37.1281 8.16327 37.1099 8.21386 37.0895 8.26364C37.0361 8.39183 35.7615 11.3834 32.2848 12.5175C32.1219 12.5708 31.9534 12.5978 31.7843 12.5978C31.0912 12.5978 30.4794 12.1581 30.2619 11.5036C29.986 10.671 30.4449 9.77044 31.284 9.49574C33.1262 8.89601 33.932 7.44913 34.0996 7.10869C34.5528 5.49218 33.8288 5.04758 33.7975 5.02917C33.7708 5.01766 33.7222 4.99182 33.6758 4.96208C32.9473 4.5192 32.0916 4.86879 31.8796 4.96761C30.8319 5.69155 28.7027 6.50669 28.284 6.66363C28.1914 6.69854 27.9028 6.95901 27.6675 7.22084C27.6512 7.23906 27.6328 7.25511 27.6122 7.2688C27.5952 7.28023 25.899 8.43626 25.6283 9.91169C25.6105 10.0899 25.1017 14.7929 22.6833 17.5961V22.9735" stroke="#A03259" stroke-linecap="round" stroke-linejoin="round"/>
<path d="M32.3419 12.4985C31.8429 13.1379 30.9959 13.5375 30.0574 13.5375C28.5439 13.5375 27.3125 12.488 27.3125 11.198C27.3125 9.90809 28.5439 8.85858 30.0574 8.85858C30.6588 8.85858 31.2389 9.0254 31.7141 9.33211" stroke="#A03259" stroke-linecap="round" stroke-linejoin="round"/>
<path d="M27.2419 11.308H27.2353C27.2229 11.3078 25.9366 11.2794 25.543 11.2984" stroke="#A03259" stroke-linecap="round" stroke-linejoin="round"/>
<path d="M17.4938 22.9736V13.7826C17.0403 13.6548 16.464 13.3589 16.3875 13.3192C15.7611 12.9738 15.4168 12.0416 15.2284 11.1724C14.9647 9.9566 14.5569 8.77609 14.0084 7.65786C13.93 7.49811 13.8537 7.33973 13.7803 7.18551C13.4056 6.39829 13.9822 5.49203 14.8594 5.49203L22.9086 5.49176C23.7714 5.49176 24.3498 6.37164 24.0018 7.15496C23.994 7.17246 23.9861 7.19004 23.9783 7.20772C23.4404 8.41725 23.0697 9.69178 22.8504 10.9959C22.7108 11.8267 22.4263 12.7371 21.85 13.1883C21.6599 13.3255 21.1249 13.6964 20.6976 13.8407V22.9736" stroke="#A03259" stroke-linecap="round" stroke-linejoin="round"/>
</g>
<defs>
<clipPath id="clip0_4547_5147">
<rect width="38" height="23" fill="white" transform="translate(0 0.517578)"/>
</clipPath>
</defs>
</svg>
