<svg width="38" height="38" viewBox="0 0 38 38" fill="none" xmlns="http://www.w3.org/2000/svg">
<g clip-path="url(#clip0_4547_5364)">
<path d="M17.9898 23.4806L16.1872 26.3377C16.0202 26.6024 15.7501 26.7904 15.4382 26.859L12.063 27.6015C11.1841 27.7948 10.8401 28.8317 11.4376 29.4865L13.6868 31.9514C13.903 32.1883 14.0091 32.5012 13.9802 32.8164L13.6797 36.0906C13.6006 36.9526 14.4933 37.5875 15.3162 37.2549L18.5448 35.9498C18.8366 35.8318 19.1646 35.8318 19.4564 35.9498L22.6851 37.2549C23.5081 37.5875 24.4007 36.9526 24.3216 36.0906L24.0211 32.8164C23.9922 32.5011 24.0984 32.1883 24.3145 31.9514L26.5637 29.4865C27.1612 28.8317 26.8171 27.7948 25.9383 27.6015L22.5631 26.859C22.2512 26.7904 21.9811 26.6024 21.8142 26.3377L20.0115 23.4806C19.549 22.7477 18.452 22.7477 17.9895 23.4806H17.9898Z" stroke="#A03259" stroke-linecap="round" stroke-linejoin="round"/>
<path d="M31.4475 24.2413C33.9804 24.2413 36.0337 22.1879 36.0337 19.6551C36.0337 17.1222 33.9804 15.0688 31.4475 15.0688C28.9146 15.0688 26.8613 17.1222 26.8613 19.6551C26.8613 22.1879 28.9146 24.2413 31.4475 24.2413Z" stroke="#A03259" stroke-linecap="round" stroke-linejoin="round"/>
<path d="M12.0676 18.3513C11.9759 18.3447 11.8842 18.3447 11.7924 18.3447C8.89657 18.3447 6.55105 20.6902 6.55105 23.5861C6.55105 24.2806 6.68864 24.9357 6.93105 25.5451C4.15967 25.4009 1.96484 23.1144 1.96484 20.3102C1.96484 17.4144 4.31036 15.0688 7.20622 15.0688C9.4076 15.0688 11.2945 16.4251 12.0676 18.3513Z" stroke="#A03259" stroke-linecap="round" stroke-linejoin="round"/>
<path d="M16.4453 2.69941C16.7074 1.52665 17.7491 0.655273 19.0005 0.655273C20.2519 0.655273 21.2936 1.52665 21.5557 2.69941" stroke="#A03259" stroke-linecap="round" stroke-linejoin="round"/>
<path d="M37.344 9.82766C37.344 9.82766 30.8577 5.70008 20.6829 5.28077C20.1326 5.25456 19.5691 5.24146 18.9991 5.24146C18.4291 5.24146 17.8657 5.25456 17.3153 5.28077C7.1405 5.70008 0.654297 9.82766 0.654297 9.82766" stroke="#A03259" stroke-linecap="round" stroke-linejoin="round"/>
<path d="M6.55078 15.069V7.22656" stroke="#A03259" stroke-linecap="round" stroke-linejoin="round"/>
<path d="M31.4492 15.069V7.22656" stroke="#A03259" stroke-linecap="round" stroke-linejoin="round"/>
<path d="M19 22.9311V5.24146" stroke="#A03259" stroke-linecap="round" stroke-linejoin="round"/>
</g>
<defs>
<clipPath id="clip0_4547_5364">
<rect width="38" height="38" fill="white"/>
</clipPath>
</defs>
</svg>
