<svg width="34" height="34" viewBox="0 0 34 34" fill="none" xmlns="http://www.w3.org/2000/svg">
<g clip-path="url(#clip0_4547_5452)">
<path d="M17.5859 0.586182V1.7586" stroke="#A03259" stroke-linecap="round" stroke-linejoin="round"/>
<path d="M23.4487 2.93093C23.4487 2.93093 21.1039 2.34473 17.5867 2.34473C14.0694 2.34473 11.7246 2.93093 11.7246 2.93093" stroke="#A03259" stroke-linecap="round" stroke-linejoin="round"/>
<path d="M17.5859 2.34473V4.10335" stroke="#A03259" stroke-linecap="round" stroke-linejoin="round"/>
<path d="M13.4824 2.93115V7.0346" stroke="#A03259" stroke-linecap="round" stroke-linejoin="round"/>
<path d="M21.6895 2.93115V7.0346" stroke="#A03259" stroke-linecap="round" stroke-linejoin="round"/>
<path d="M17.5865 6.44834C18.234 6.44834 18.7589 5.92344 18.7589 5.27593C18.7589 4.62842 18.234 4.10352 17.5865 4.10352C16.939 4.10352 16.4141 4.62842 16.4141 5.27593C16.4141 5.92344 16.939 6.44834 17.5865 6.44834Z" stroke="#A03259" stroke-linecap="round" stroke-linejoin="round"/>
<path d="M21.69 9.37925C22.3375 9.37925 22.8624 8.85434 22.8624 8.20684C22.8624 7.55933 22.3375 7.03442 21.69 7.03442C21.0425 7.03442 20.5176 7.55933 20.5176 8.20684C20.5176 8.85434 21.0425 9.37925 21.69 9.37925Z" stroke="#A03259" stroke-linecap="round" stroke-linejoin="round"/>
<path d="M13.483 9.37925C14.1305 9.37925 14.6554 8.85434 14.6554 8.20684C14.6554 7.55933 14.1305 7.03442 13.483 7.03442C12.8355 7.03442 12.3105 7.55933 12.3105 8.20684C12.3105 8.85434 12.8355 9.37925 13.483 9.37925Z" stroke="#A03259" stroke-linecap="round" stroke-linejoin="round"/>
<path d="M28.7245 15.8276H7.62109" stroke="#A03259" stroke-linecap="round" stroke-linejoin="round"/>
<path d="M2.83789 12.3103H31.0696" stroke="#A03259" stroke-linecap="round" stroke-linejoin="round"/>
<path d="M7.62022 15.8276H9.96505V28.138H5.27539V15.8276" stroke="#A03259" stroke-linecap="round" stroke-linejoin="round"/>
<path d="M14.6545 15.8276H9.96484V28.138H14.6545V15.8276Z" stroke="#A03259" stroke-linecap="round" stroke-linejoin="round"/>
<path d="M19.344 15.8276H14.6543V28.138H19.344V15.8276Z" stroke="#A03259" stroke-linecap="round" stroke-linejoin="round"/>
<path d="M24.0354 15.8276H19.3457V28.138H24.0354V15.8276Z" stroke="#A03259" stroke-linecap="round" stroke-linejoin="round"/>
<path d="M28.7248 15.8276H24.0352V28.138H28.7248V15.8276Z" stroke="#A03259" stroke-linecap="round" stroke-linejoin="round"/>
<path d="M28.7237 28.1379H5.27539V31.6552H28.7237V28.1379Z" stroke="#A03259" stroke-linecap="round" stroke-linejoin="round"/>
<path d="M4.68939 12.3103H1.17214C0.848391 12.3103 0.585938 12.5728 0.585938 12.8965V32.8275C0.585938 33.1513 0.848391 33.4138 1.17214 33.4138H4.68939C5.01314 33.4138 5.27559 33.1513 5.27559 32.8275V12.8965C5.27559 12.5728 5.01314 12.3103 4.68939 12.3103Z" stroke="#A03259" stroke-linecap="round" stroke-linejoin="round"/>
<path d="M32.8281 12.3103H29.3108C28.9871 12.3103 28.7246 12.5728 28.7246 12.8965V32.8275C28.7246 33.1513 28.9871 33.4138 29.3108 33.4138H32.8281C33.1518 33.4138 33.4143 33.1513 33.4143 32.8275V12.8965C33.4143 12.5728 33.1518 12.3103 32.8281 12.3103Z" stroke="#A03259" stroke-linecap="round" stroke-linejoin="round"/>
</g>
<defs>
<clipPath id="clip0_4547_5452">
<rect width="34" height="34" fill="white"/>
</clipPath>
</defs>
</svg>
