<svg width="25" height="32" viewBox="0 0 25 32" fill="none" xmlns="http://www.w3.org/2000/svg">
<g clip-path="url(#clip0_4547_5161)">
<path d="M15.9783 19.123C15.9291 19.123 15.8791 19.1159 15.8295 19.101C15.5561 19.0191 15.4008 18.7307 15.4829 18.4573C15.5916 18.0946 15.7641 17.5701 15.7641 17.5701C15.7743 17.5391 15.7875 17.5091 15.8034 17.4805C15.9677 17.1849 16.2672 17.0397 16.6047 17.0923C16.6693 17.1022 16.7333 17.1054 16.7806 17.1061C16.8271 17.0554 16.8986 16.952 16.9534 16.8727C17.1609 16.5732 17.4449 16.163 17.9777 15.8776C18.2952 15.7076 18.8324 15.559 19.2102 15.5358C20.264 15.4184 22.2788 15.7776 23.2202 17.8676C23.3374 18.1279 23.2214 18.4341 22.961 18.5514C22.7009 18.6685 22.3947 18.5528 22.2773 18.2922C21.4146 16.377 19.5266 16.5399 19.3144 16.5646C19.3033 16.5659 19.2921 16.5669 19.281 16.5675C19.0309 16.5804 18.6375 16.6973 18.466 16.7892C18.153 16.9567 17.9755 17.2133 17.8035 17.4615C17.6048 17.7484 17.3797 18.0737 16.9607 18.1331C16.9476 18.135 16.9342 18.1364 16.921 18.1373C16.9053 18.1383 16.804 18.144 16.6673 18.1366C16.6097 18.3148 16.532 18.5588 16.4733 18.7543C16.4061 18.9782 16.2007 19.1229 15.9783 19.1229L15.9783 19.123Z" fill="#A03259"/>
<path d="M11.8533 12.4358C11.2797 12.4358 10.6997 12.2322 10.3038 11.7462C10.1234 11.5248 10.1566 11.1991 10.3778 11.0187C10.5992 10.8382 10.9249 10.8716 11.1053 11.0928C11.4064 11.4624 12.032 11.4716 12.4631 11.2674C13.0476 10.9901 13.4673 10.3786 13.7323 9.94289C14.3486 8.92869 14.8472 7.43469 15.0662 5.94609C15.1077 5.6636 15.3698 5.46846 15.6529 5.50988C15.9354 5.55142 16.1308 5.81409 16.0891 6.09658C15.8512 7.71489 15.3003 9.35355 14.6158 10.4798C14.282 11.0291 13.7415 11.8053 12.9063 12.2017C12.5922 12.3505 12.224 12.4357 11.8533 12.4357V12.4358Z" fill="#A03259"/>
<path d="M19.7319 16.5498C19.4677 16.5498 19.2424 16.3483 19.2177 16.0801C19.0379 14.1269 18.1478 13.6994 17.2514 13.4289C16.8521 13.3086 16.4015 13.323 15.9246 13.3382C15.8266 13.3413 15.7289 13.3443 15.6313 13.3464C14.9825 13.3605 14.234 13.3154 13.607 12.8883C13.371 12.7276 13.3098 12.406 13.4705 12.17C13.6315 11.934 13.9526 11.8731 14.1889 12.0335C14.5756 12.2968 15.1243 12.3219 15.6104 12.3126C15.7038 12.3107 15.7978 12.3077 15.8916 12.3047C16.431 12.2879 16.9887 12.2699 17.55 12.439C18.7559 12.8028 20.0194 13.5087 20.2474 15.9855C20.2735 16.2698 20.0643 16.5215 19.7799 16.5477C19.7638 16.5492 19.7478 16.5499 19.7319 16.5499V16.5498Z" fill="#A03259"/>
<path d="M16.7888 11.5148C16.7451 11.5148 16.7006 11.5092 16.6565 11.4975C16.3803 11.4247 16.2156 11.1418 16.2885 10.8657C16.5667 9.81161 16.8544 8.72183 16.8861 7.6398C16.9178 6.54947 16.663 5.69254 16.0844 4.94299C15.9098 4.71705 15.9516 4.39224 16.1777 4.21781C16.4036 4.04301 16.7282 4.08503 16.9029 4.31109C17.6256 5.2472 17.9582 6.3458 17.9196 7.66993C17.8845 8.87082 17.5815 10.0191 17.2882 11.1295C17.227 11.3614 17.0178 11.5147 16.7888 11.5147V11.5148Z" fill="#A03259"/>
<path d="M5.62251 15.9498C4.78196 15.9498 3.97821 15.5966 3.49854 14.9513C3.32824 14.722 3.37596 14.3983 3.6052 14.2279C3.83457 14.0577 4.15847 14.1054 4.32858 14.3346C4.75033 14.9021 5.70391 15.0813 6.45406 14.7327C7.40668 14.2909 7.87561 13.296 8.07039 12.7424C8.35654 11.9287 8.4482 11.0616 8.54526 10.1434L8.5748 9.86631C8.68627 8.83403 8.83483 7.74299 9.30916 6.74727C9.78871 5.74087 10.7799 5.59975 11.7386 5.46331C12.9723 5.28773 14.248 5.10621 15.1103 3.26538C15.2312 3.0066 15.5392 2.89543 15.7977 3.01645C16.0564 3.13752 16.1678 3.44534 16.0467 3.70387C14.9472 6.05115 13.177 6.30308 11.8843 6.487C10.9639 6.61804 10.4728 6.70892 10.2428 7.19207C9.83823 8.04121 9.7048 9.03356 9.60281 9.97736L9.57364 10.252C9.47453 11.1889 9.37219 12.1575 9.04588 13.0854C8.61622 14.3068 7.8504 15.2249 6.88919 15.6708C6.48251 15.8595 6.0478 15.9498 5.62251 15.9498Z" fill="#A03259"/>
<path d="M4.69146 12.978C4.51954 12.978 4.35153 12.8923 4.25333 12.7361C4.10122 12.4944 4.17391 12.1752 4.41564 12.0232C5.1524 11.5599 5.27954 9.53631 5.37228 8.059C5.41016 7.45501 5.44599 6.88458 5.5158 6.42261C5.8624 4.12846 6.43841 2.78231 7.64092 1.45566C9.15965 -0.219737 12.1619 -0.842512 15.1643 1.74949C15.3805 1.93617 15.4045 2.2626 15.2179 2.47869C15.0316 2.69491 14.7048 2.71892 14.4887 2.53236C11.6417 0.0748729 9.32653 1.13584 8.4071 2.15017C7.34391 3.32303 6.85493 4.48142 6.53824 6.57712C6.47515 6.99455 6.44063 7.54301 6.4042 8.12376C6.28564 10.0124 6.15124 12.1532 4.96626 12.8985C4.88066 12.9522 4.78552 12.9779 4.69146 12.978Z" fill="#A03259"/>
<path d="M5.79819 27.8282C5.57628 27.8282 5.37116 27.6843 5.30351 27.461C4.35077 24.3165 6.64403 22.0006 8.89724 20.9728C11.0252 20.0022 13.6101 19.5685 16.1733 19.7502C16.6519 19.7842 17.1302 19.8463 17.5926 19.9064C18.5059 20.0248 19.3689 20.1368 20.227 20.0494C21.4017 19.9295 22.1079 19.3029 22.3259 18.1871C22.3805 17.907 22.6506 17.724 22.9325 17.7788C23.2127 17.8336 23.3955 18.1051 23.3407 18.3853C23.0384 19.9323 21.9417 20.9137 20.332 21.0781C19.3541 21.1775 18.391 21.0525 17.4594 20.9318C17.0116 20.8736 16.5485 20.8135 16.0999 20.7816C13.7405 20.6135 11.2711 21.0264 9.32637 21.9136C8.64807 22.2229 5.31408 23.9299 6.29305 27.161C6.37583 27.4343 6.2215 27.7229 5.9482 27.8057C5.8982 27.8208 5.84772 27.828 5.79813 27.828L5.79819 27.8282Z" fill="#A03259"/>
<path d="M7.75884 32C4.68038 32 1.44183 31.3232 0.421925 29.3089C-0.0957437 28.2867 -0.01921 27.1091 0.0484399 26.07C0.0586444 25.9129 0.0687288 25.7566 0.0769524 25.602C0.143222 24.3435 0.257452 23.4284 0.367781 22.5435C0.476069 21.6762 0.587898 20.7795 0.652306 19.5576C0.692704 18.7906 0.738384 17.9213 1.01673 17.1094C1.34909 16.1405 2.96147 14.8655 3.70831 14.5434C3.97075 14.4303 4.27478 14.5512 4.38775 14.8134C4.50084 15.0756 4.38007 15.3797 4.11776 15.4928C3.46959 15.7724 2.17884 16.9081 1.99492 17.4448C1.76346 18.1199 1.72342 18.8784 1.68476 19.6119C1.61861 20.8707 1.50438 21.7862 1.39381 22.6714C1.28565 23.5384 1.17382 24.4349 1.10941 25.6563C1.10106 25.8152 1.09074 25.9756 1.08012 26.1371C1.01829 27.0883 0.95442 28.0719 1.34429 28.8419C2.74765 31.6131 10.8233 31.2517 13.1196 30.1326C15.1303 29.1526 16.1158 28.3028 17.1371 26.5767C16.9524 26.6517 16.6755 26.8258 16.2166 27.1442C15.4785 27.6565 14.4675 28.3584 13.0778 28.7077C12.8007 28.7784 12.5199 28.6094 12.4503 28.3324C12.3806 28.0555 12.5487 27.7745 12.8256 27.705C14.0327 27.4014 14.9166 26.7877 15.6271 26.2946C16.5091 25.6823 17.4211 25.0489 18.2711 25.9079C18.4314 26.07 18.4666 26.3179 18.3578 26.5183C17.1215 28.795 15.9587 29.8991 13.5725 31.062C12.5106 31.5796 10.1843 31.9999 7.75878 32L7.75884 32Z" fill="#A03259"/>
<path d="M19.6385 26.2006C19.4777 26.2006 19.3192 26.1258 19.2181 25.985C19.0516 25.7531 19.1048 25.4301 19.3368 25.2635C20.3884 24.5086 21.3228 23.8157 22.1081 22.9787C22.9938 22.035 23.5485 21.0457 23.7568 20.0382C23.9922 18.8995 23.744 17.7593 23.0929 16.9881C22.9088 16.77 22.9363 16.4438 23.1545 16.2596C23.3725 16.0753 23.699 16.1028 23.8831 16.3211C24.7373 17.3328 25.0686 18.8006 24.7693 20.2475C24.5219 21.4445 23.8804 22.6015 22.8622 23.6863C22.0129 24.5914 21.0362 25.3165 19.9396 26.1037C19.8484 26.1692 19.7429 26.2006 19.6385 26.2006Z" fill="#A03259"/>
<path d="M14.7056 25.3518C14.63 25.3518 14.5531 25.3351 14.4805 25.3L12.4647 24.3231C11.4445 23.8286 10.3892 23.3173 9.28159 23.2543C8.22747 23.1937 6.84272 23.6815 6.45278 24.5013C6.33009 24.7591 6.02161 24.8685 5.76386 24.7461C5.50599 24.6235 5.39632 24.3151 5.51901 24.0572C6.13626 22.7592 7.94666 22.1417 9.34018 22.222C10.6542 22.2966 11.8557 22.8788 12.9157 23.3925L14.9314 24.3694C15.1884 24.4938 15.2957 24.8031 15.1712 25.0601C15.082 25.2444 14.8975 25.3518 14.7056 25.3518Z" fill="#A03259"/>
<path d="M10.1368 28.781C8.24005 28.781 5.88611 28.1043 4.01317 27.0044C3.76688 26.8598 3.68446 26.5429 3.82912 26.2968C3.97379 26.0504 4.29049 25.9679 4.53672 26.1128C6.2189 27.1006 8.39252 27.7335 10.0878 27.7466C10.1937 27.4426 10.3862 27.1516 10.6166 26.9767C10.8304 26.8145 11.0627 26.7074 11.2677 26.6128C11.3281 26.5849 11.3884 26.5572 11.4479 26.528C11.592 26.4573 11.7936 26.3466 11.8784 26.2034C11.9005 26.1657 11.9206 26.1245 11.9412 26.083C12.0467 25.871 12.2429 25.4763 12.7007 25.4143C12.9916 25.374 13.2951 25.503 13.4927 25.7499C13.6373 25.9305 13.6984 26.1321 13.7355 26.2876C13.9032 26.9921 13.8055 27.763 13.4676 28.4028C13.334 28.6554 13.0208 28.7514 12.769 28.6185C12.5165 28.4851 12.42 28.1724 12.5533 27.9199C12.7434 27.56 12.818 27.137 12.7668 26.7324C12.541 27.1123 12.166 27.3275 11.9033 27.4564C11.8363 27.4893 11.7686 27.5205 11.7009 27.5519C11.5285 27.6313 11.3657 27.7064 11.2417 27.8004C11.1513 27.869 11.0286 28.1221 11.0336 28.23C11.0466 28.5135 10.8289 28.7545 10.5455 28.7702C10.4119 28.7775 10.2755 28.7811 10.1368 28.7811L10.1368 28.781Z" fill="#A03259"/>
<path d="M4.03532 20.1676C3.64809 20.1676 3.2674 20.1117 2.904 19.9966C2.63184 19.9104 2.48099 19.6198 2.56725 19.3475C2.65345 19.0752 2.94368 18.9243 3.21632 19.0108C4.27092 19.3448 5.60501 18.9677 6.61442 18.0503C7.60666 17.1485 8.22577 15.8997 8.74722 14.6846C8.85983 14.4222 9.16314 14.3004 9.42618 14.4133C9.68861 14.526 9.81005 14.8299 9.69744 15.0923C9.13007 16.4146 8.44823 17.7809 7.30988 18.8156C6.34478 19.6927 5.16256 20.1677 4.03538 20.1677L4.03532 20.1676Z" fill="#A03259"/>
</g>
<defs>
<clipPath id="clip0_4547_5161">
<rect width="24.8779" height="32" fill="white"/>
</clipPath>
</defs>
</svg>
