<svg width="38" height="34" viewBox="0 0 38 34" fill="none" xmlns="http://www.w3.org/2000/svg">
<g clip-path="url(#clip0_4547_5193)">
<path d="M15.8328 18.2593H0.632812V33.3704H15.8328V18.2593Z" stroke="#A03259" stroke-linecap="round" stroke-linejoin="round"/>
<path d="M31.034 18.2593H15.834V33.3704H31.034V18.2593Z" stroke="#A03259" stroke-linecap="round" stroke-linejoin="round"/>
<path d="M23.4324 3.14819H8.23242V18.2593H23.4324V3.14819Z" stroke="#A03259" stroke-linecap="round" stroke-linejoin="round"/>
<path d="M29.7669 13.8519L23.4336 18.2593V3.14816L29.7669 0.629639V13.8519Z" stroke="#A03259" stroke-linecap="round" stroke-linejoin="round"/>
<path d="M37.3665 27.074L31.0332 33.3703V18.2592L37.3665 13.8518V27.074Z" stroke="#A03259" stroke-linecap="round" stroke-linejoin="round"/>
<path d="M37.3674 13.8518H32.3008" stroke="#A03259" stroke-linecap="round" stroke-linejoin="round"/>
<path d="M8.23242 3.14816L15.1991 0.629639H29.7658" stroke="#A03259" stroke-linecap="round" stroke-linejoin="round"/>
<path d="M5.69948 15.9106L0.632812 18.2592" stroke="#A03259" stroke-linecap="round" stroke-linejoin="round"/>
<path d="M25.6501 28.8446C25.3481 28.9218 25.0295 28.963 24.7001 28.963C22.7763 28.963 21.2168 27.5536 21.2168 25.8149C21.2168 24.0762 22.7763 22.6667 24.7001 22.6667C25.0295 22.6667 25.3481 22.708 25.6501 22.7852" stroke="#A03259" stroke-linecap="round" stroke-linejoin="round"/>
<path d="M13.3008 13.852L15.8341 7.55566L18.3674 13.852" stroke="#A03259" stroke-linecap="round" stroke-linejoin="round"/>
<path d="M17.7336 12.2778H13.9336" stroke="#A03259" stroke-linecap="round" stroke-linejoin="round"/>
<path d="M6.33398 28.8055V25.9721V25.6573V22.824" stroke="#A03259" stroke-linecap="round" stroke-linejoin="round"/>
<path d="M6.33398 25.6575C6.67598 25.7582 7.06358 25.8149 7.47398 25.8149C8.94078 25.8149 10.134 25.8149 10.134 24.2408C10.134 22.6667 8.94078 22.6667 7.47398 22.6667C7.06358 22.6667 6.67598 22.7234 6.33398 22.8242" stroke="#A03259" stroke-linecap="round" stroke-linejoin="round"/>
<path d="M10.134 27.3888C10.134 28.9628 8.94078 28.9628 7.47398 28.9628C7.06358 28.9628 6.67598 28.9062 6.33398 28.8054V25.9721C6.67598 25.8714 7.06358 25.8147 7.47398 25.8147C8.94078 25.8147 10.134 25.8147 10.134 27.3888Z" stroke="#A03259" stroke-linecap="round" stroke-linejoin="round"/>
</g>
<defs>
<clipPath id="clip0_4547_5193">
<rect width="38" height="34" fill="white"/>
</clipPath>
</defs>
</svg>
