<svg width="38" height="33" viewBox="0 0 38 33" fill="none" xmlns="http://www.w3.org/2000/svg">
<g clip-path="url(#clip0_4547_5209)">
<path d="M18.9416 7.84653C19.4795 6.82278 19.9222 5.76559 20.547 4.83008C22.744 1.54004 25.9054 0.215311 29.734 0.927715C33.2863 1.58866 35.6467 3.87938 36.6793 7.31775C37.8288 11.1451 37.1933 14.8753 35.4498 18.405C33.5753 22.1999 30.62 25.069 27.2637 27.5521C24.854 29.3349 22.2726 30.8342 19.5487 32.0891C19.1775 32.2601 18.8593 32.2859 18.4766 32.1065C14.0462 30.0289 9.97217 27.4321 6.5375 23.9101C3.99664 21.3047 2.03342 18.3448 1.22242 14.7431C0.588379 11.9273 0.438939 9.08303 1.64915 6.38495C3.20291 2.92104 5.87433 0.87243 9.75535 0.771734C13.6401 0.670914 16.3587 2.60217 18.1454 5.96365C18.3059 6.26574 18.4452 6.58017 18.5781 6.89559C18.7103 7.20928 18.8221 7.53161 18.9416 7.84653Z" stroke="#A03259" stroke-linecap="round" stroke-linejoin="round"/>
<path d="M18.9521 12.6417C19.394 11.8289 19.7577 10.9895 20.271 10.2468C22.0757 7.63479 24.6728 6.58306 27.8179 7.14865C30.7361 7.67339 32.6751 9.49204 33.5234 12.2218C34.4677 15.2604 33.9456 18.2219 32.5133 21.0242C30.9735 24.0371 28.5458 26.3149 25.7886 28.2863C23.8091 29.7017 21.6885 30.8921 19.4509 31.8884C19.1459 32.0241 18.8845 32.0446 18.5701 31.9022C14.9306 30.2527 11.5839 28.1911 8.76236 25.3949C6.67508 23.3264 5.06234 20.9764 4.39611 18.117C3.87525 15.8815 3.75249 13.6233 4.74666 11.4813C6.02305 8.73119 8.21758 7.10476 11.4058 7.02481C14.597 6.94477 16.8304 8.47803 18.298 11.1468C18.4299 11.3866 18.5444 11.6363 18.6536 11.8867C18.7621 12.1357 18.854 12.3916 18.9521 12.6417Z" stroke="#A03259" stroke-linecap="round" stroke-linejoin="round"/>
<path d="M18.9649 18.062C19.2889 17.4768 19.5557 16.8725 19.9321 16.3377C21.2555 14.457 23.1601 13.6998 25.4665 14.107C27.6064 14.4848 29.0284 15.7943 29.6505 17.7597C30.343 19.9475 29.9601 22.0798 28.9098 24.0975C27.7805 26.2667 26.0002 27.9067 23.9783 29.3261C22.5267 30.3452 20.9716 31.2023 19.3306 31.9196C19.107 32.0174 18.9153 32.0321 18.6848 31.9296C16.0158 30.742 13.5615 29.2576 11.4924 27.2443C9.96173 25.755 8.77905 24.063 8.29048 22.0043C7.90852 20.3947 7.81849 18.7688 8.54755 17.2265C9.48357 15.2465 11.0929 14.0754 13.4309 14.0179C15.7711 13.9602 17.4089 15.0642 18.4852 16.9857C18.582 17.1584 18.6659 17.3381 18.7459 17.5184C18.8256 17.6977 18.8929 17.882 18.9649 18.062Z" stroke="#A03259" stroke-linecap="round" stroke-linejoin="round"/>
</g>
<defs>
<clipPath id="clip0_4547_5209">
<rect width="38" height="32.9701" fill="white"/>
</clipPath>
</defs>
</svg>
