<svg width="25" height="32" viewBox="0 0 25 32" fill="none" xmlns="http://www.w3.org/2000/svg">
<g clip-path="url(#clip0_4547_5437)">
<path d="M15.9783 19.1231C15.9291 19.1231 15.8791 19.116 15.8295 19.1011C15.5561 19.0192 15.4008 18.7309 15.4829 18.4574C15.5916 18.0948 15.7641 17.5703 15.7641 17.5703C15.7743 17.5392 15.7875 17.5093 15.8034 17.4806C15.9677 17.185 16.2672 17.0399 16.6047 17.0924C16.6693 17.1023 16.7333 17.1055 16.7806 17.1062C16.8271 17.0555 16.8986 16.9522 16.9534 16.8729C17.1609 16.5733 17.4449 16.1631 17.9777 15.8777C18.2952 15.7077 18.8324 15.5591 19.2102 15.5359C20.264 15.4185 22.2788 15.7777 23.2202 17.8677C23.3374 18.128 23.2214 18.4342 22.961 18.5515C22.7009 18.6686 22.3947 18.5529 22.2773 18.2924C21.4146 16.3772 19.5266 16.54 19.3144 16.5647C19.3033 16.566 19.2921 16.567 19.281 16.5676C19.0309 16.5805 18.6375 16.6974 18.466 16.7893C18.153 16.9568 17.9755 17.2134 17.8035 17.4616C17.6048 17.7485 17.3797 18.0738 16.9607 18.1332C16.9476 18.1352 16.9342 18.1365 16.921 18.1374C16.9053 18.1384 16.804 18.1442 16.6673 18.1367C16.6097 18.3149 16.532 18.5589 16.4733 18.7545C16.4061 18.9784 16.2007 19.123 15.9783 19.123L15.9783 19.1231Z" fill="#A03259"/>
<path d="M11.8533 12.4359C11.2797 12.4359 10.6997 12.2322 10.3038 11.7463C10.1234 11.5249 10.1566 11.1992 10.3778 11.0188C10.5992 10.8383 10.9249 10.8716 11.1053 11.0929C11.4064 11.4625 12.032 11.4717 12.4631 11.2674C13.0476 10.9901 13.4673 10.3787 13.7323 9.94295C14.3486 8.92875 14.8472 7.43475 15.0662 5.94615C15.1077 5.66367 15.3698 5.46852 15.6529 5.50994C15.9354 5.55148 16.1308 5.81415 16.0891 6.09664C15.8512 7.71495 15.3003 9.35361 14.6158 10.4799C14.282 11.0292 13.7415 11.8054 12.9063 12.2018C12.5922 12.3506 12.224 12.4358 11.8533 12.4358V12.4359Z" fill="#A03259"/>
<path d="M19.7319 16.5499C19.4677 16.5499 19.2424 16.3484 19.2177 16.0802C19.0379 14.127 18.1478 13.6995 17.2514 13.429C16.8521 13.3088 16.4015 13.3232 15.9246 13.3383C15.8266 13.3415 15.7289 13.3445 15.6313 13.3465C14.9825 13.3606 14.234 13.3155 13.607 12.8884C13.371 12.7278 13.3098 12.4061 13.4705 12.1701C13.6315 11.9341 13.9526 11.8732 14.1889 12.0337C14.5756 12.2969 15.1243 12.322 15.6104 12.3127C15.7038 12.3108 15.7978 12.3078 15.8916 12.3048C16.431 12.288 16.9887 12.27 17.55 12.4391C18.7559 12.803 20.0194 13.5088 20.2474 15.9856C20.2735 16.2699 20.0643 16.5216 19.7799 16.5478C19.7638 16.5493 19.7478 16.55 19.7319 16.55V16.5499Z" fill="#A03259"/>
<path d="M16.7888 11.5148C16.7451 11.5148 16.7006 11.5092 16.6565 11.4975C16.3803 11.4247 16.2156 11.1418 16.2885 10.8657C16.5667 9.81161 16.8544 8.72183 16.8861 7.6398C16.9178 6.54947 16.663 5.69254 16.0844 4.94299C15.9098 4.71705 15.9516 4.39224 16.1777 4.21781C16.4036 4.04301 16.7282 4.08503 16.9029 4.31109C17.6256 5.2472 17.9582 6.3458 17.9196 7.66993C17.8845 8.87082 17.5815 10.0191 17.2882 11.1295C17.227 11.3614 17.0178 11.5147 16.7888 11.5147V11.5148Z" fill="#A03259"/>
<path d="M5.62251 15.9498C4.78196 15.9498 3.97821 15.5966 3.49854 14.9513C3.32824 14.722 3.37596 14.3983 3.6052 14.2279C3.83457 14.0577 4.15847 14.1054 4.32858 14.3346C4.75033 14.9021 5.70391 15.0813 6.45406 14.7327C7.40668 14.2909 7.87561 13.296 8.07039 12.7424C8.35654 11.9287 8.4482 11.0616 8.54526 10.1434L8.5748 9.86631C8.68627 8.83403 8.83483 7.74299 9.30916 6.74727C9.78871 5.74087 10.7799 5.59975 11.7386 5.46331C12.9723 5.28773 14.248 5.10621 15.1103 3.26538C15.2312 3.0066 15.5392 2.89543 15.7977 3.01645C16.0564 3.13752 16.1678 3.44534 16.0467 3.70387C14.9472 6.05115 13.177 6.30308 11.8843 6.487C10.9639 6.61804 10.4728 6.70892 10.2428 7.19207C9.83823 8.04121 9.7048 9.03356 9.60281 9.97736L9.57364 10.252C9.47453 11.1889 9.37219 12.1575 9.04588 13.0854C8.61622 14.3068 7.8504 15.2249 6.88919 15.6708C6.48251 15.8595 6.0478 15.9498 5.62251 15.9498Z" fill="#A03259"/>
<path d="M4.69146 12.978C4.51954 12.978 4.35153 12.8923 4.25333 12.7362C4.10122 12.4945 4.17391 12.1753 4.41564 12.0233C5.1524 11.5599 5.27954 9.53637 5.37228 8.05906C5.41016 7.45507 5.44599 6.88464 5.5158 6.42268C5.8624 4.12852 6.43841 2.78237 7.64092 1.45572C9.15965 -0.219676 12.1619 -0.842451 15.1643 1.74955C15.3805 1.93624 15.4045 2.26266 15.2179 2.47875C15.0316 2.69497 14.7048 2.71898 14.4887 2.53242C11.6417 0.074934 9.32653 1.1359 8.4071 2.15023C7.34391 3.32309 6.85493 4.48148 6.53824 6.57718C6.47515 6.99461 6.44063 7.54307 6.4042 8.12383C6.28564 10.0125 6.15124 12.1533 4.96626 12.8985C4.88066 12.9523 4.78552 12.9779 4.69146 12.978Z" fill="#A03259"/>
<path d="M5.79819 27.8283C5.57628 27.8283 5.37116 27.6845 5.30351 27.4612C4.35077 24.3167 6.64403 22.0008 8.89724 20.973C11.0252 20.0024 13.6101 19.5687 16.1733 19.7503C16.6519 19.7844 17.1302 19.8465 17.5926 19.9066C18.5059 20.025 19.3689 20.137 20.227 20.0496C21.4017 19.9296 22.1079 19.3031 22.3259 18.1872C22.3805 17.9072 22.6506 17.7241 22.9325 17.779C23.2127 17.8338 23.3955 18.1053 23.3407 18.3855C23.0384 19.9325 21.9417 20.9139 20.332 21.0782C19.3541 21.1777 18.391 21.0527 17.4594 20.932C17.0116 20.8738 16.5485 20.8137 16.0999 20.7818C13.7405 20.6136 11.2711 21.0266 9.32637 21.9137C8.64807 22.2231 5.31408 23.93 6.29305 27.1611C6.37583 27.4344 6.2215 27.7231 5.9482 27.8059C5.8982 27.821 5.84772 27.8282 5.79813 27.8282L5.79819 27.8283Z" fill="#A03259"/>
<path d="M7.75884 32C4.68038 32 1.44183 31.3232 0.421925 29.3089C-0.0957437 28.2867 -0.01921 27.1091 0.0484399 26.07C0.0586444 25.9129 0.0687288 25.7566 0.0769524 25.602C0.143222 24.3435 0.257452 23.4284 0.367781 22.5435C0.476069 21.6762 0.587898 20.7795 0.652306 19.5576C0.692704 18.7906 0.738384 17.9213 1.01673 17.1094C1.34909 16.1405 2.96147 14.8655 3.70831 14.5434C3.97075 14.4303 4.27478 14.5512 4.38775 14.8134C4.50084 15.0756 4.38007 15.3797 4.11776 15.4928C3.46959 15.7724 2.17884 16.9081 1.99492 17.4448C1.76346 18.1199 1.72342 18.8784 1.68476 19.6119C1.61861 20.8707 1.50438 21.7862 1.39381 22.6714C1.28565 23.5384 1.17382 24.4349 1.10941 25.6563C1.10106 25.8152 1.09074 25.9756 1.08012 26.1371C1.01829 27.0883 0.95442 28.0719 1.34429 28.8419C2.74765 31.6131 10.8233 31.2517 13.1196 30.1326C15.1303 29.1526 16.1158 28.3028 17.1371 26.5767C16.9524 26.6517 16.6755 26.8258 16.2166 27.1442C15.4785 27.6565 14.4675 28.3584 13.0778 28.7077C12.8007 28.7784 12.5199 28.6094 12.4503 28.3324C12.3806 28.0555 12.5487 27.7745 12.8256 27.705C14.0327 27.4014 14.9166 26.7877 15.6271 26.2946C16.5091 25.6823 17.4211 25.0489 18.2711 25.9079C18.4314 26.07 18.4666 26.3179 18.3578 26.5183C17.1215 28.795 15.9587 29.8991 13.5725 31.062C12.5106 31.5796 10.1843 31.9999 7.75878 32L7.75884 32Z" fill="#A03259"/>
<path d="M19.6385 26.2008C19.4777 26.2008 19.3192 26.1259 19.2181 25.9852C19.0516 25.7533 19.1048 25.4303 19.3368 25.2637C20.3884 24.5088 21.3228 23.8159 22.1081 22.9789C22.9938 22.0352 23.5485 21.0459 23.7568 20.0383C23.9922 18.8997 23.744 17.7595 23.0929 16.9883C22.9088 16.7701 22.9363 16.444 23.1545 16.2597C23.3725 16.0755 23.699 16.103 23.8831 16.3213C24.7373 17.333 25.0686 18.8008 24.7693 20.2477C24.5219 21.4447 23.8804 22.6017 22.8622 23.6865C22.0129 24.5915 21.0362 25.3167 19.9396 26.1038C19.8484 26.1693 19.7429 26.2008 19.6385 26.2008Z" fill="#A03259"/>
<path d="M14.7056 25.3518C14.63 25.3518 14.5531 25.3351 14.4805 25.3L12.4647 24.3231C11.4445 23.8286 10.3892 23.3173 9.28159 23.2543C8.22747 23.1937 6.84272 23.6815 6.45278 24.5013C6.33009 24.7591 6.02161 24.8685 5.76386 24.7461C5.50599 24.6235 5.39632 24.3151 5.51901 24.0572C6.13626 22.7592 7.94666 22.1417 9.34018 22.222C10.6542 22.2966 11.8557 22.8788 12.9157 23.3925L14.9314 24.3694C15.1884 24.4938 15.2957 24.8031 15.1712 25.0601C15.082 25.2444 14.8975 25.3518 14.7056 25.3518Z" fill="#A03259"/>
<path d="M10.1368 28.7812C8.24005 28.7812 5.88611 28.1045 4.01317 27.0046C3.76688 26.8599 3.68446 26.5431 3.82912 26.297C3.97379 26.0506 4.29049 25.9681 4.53672 26.113C6.2189 27.1008 8.39252 27.7337 10.0878 27.7468C10.1937 27.4427 10.3862 27.1518 10.6166 26.9769C10.8304 26.8147 11.0627 26.7075 11.2677 26.613C11.3281 26.5851 11.3884 26.5573 11.4479 26.5282C11.592 26.4575 11.7936 26.3468 11.8784 26.2036C11.9005 26.1659 11.9206 26.1247 11.9412 26.0831C12.0467 25.8712 12.2429 25.4765 12.7007 25.4145C12.9916 25.3742 13.2951 25.5032 13.4927 25.7501C13.6373 25.9307 13.6984 26.1323 13.7355 26.2878C13.9032 26.9923 13.8055 27.7632 13.4676 28.403C13.334 28.6556 13.0208 28.7516 12.769 28.6187C12.5165 28.4853 12.42 28.1725 12.5533 27.9201C12.7434 27.5602 12.818 27.1372 12.7668 26.7326C12.541 27.1125 12.166 27.3277 11.9033 27.4566C11.8363 27.4894 11.7686 27.5207 11.7009 27.552C11.5285 27.6315 11.3657 27.7066 11.2417 27.8006C11.1513 27.8692 11.0286 28.1223 11.0336 28.2302C11.0466 28.5137 10.8289 28.7547 10.5455 28.7703C10.4119 28.7777 10.2755 28.7813 10.1368 28.7813L10.1368 28.7812Z" fill="#A03259"/>
<path d="M4.03532 20.1675C3.64809 20.1675 3.2674 20.1117 2.904 19.9965C2.63184 19.9103 2.48099 19.6197 2.56725 19.3475C2.65345 19.0752 2.94368 18.9242 3.21632 19.0107C4.27092 19.3447 5.60501 18.9677 6.61442 18.0503C7.60666 17.1484 8.22577 15.8997 8.74722 14.6845C8.85983 14.4221 9.16314 14.3003 9.42618 14.4133C9.68861 14.5259 9.81005 14.8298 9.69744 15.0922C9.13007 16.4146 8.44823 17.7808 7.30988 18.8155C6.34478 19.6926 5.16256 20.1676 4.03538 20.1676L4.03532 20.1675Z" fill="#A03259"/>
</g>
<defs>
<clipPath id="clip0_4547_5437">
<rect width="24.8779" height="32" fill="white"/>
</clipPath>
</defs>
</svg>
