<svg width="39" height="33" viewBox="0 0 39 33" fill="none" xmlns="http://www.w3.org/2000/svg">
<g clip-path="url(#clip0_4547_5214)">
<path d="M34.3681 18.5662C33.9452 18.4908 33.5598 18.6816 33.3383 19.0029C33.1168 18.6817 32.7315 18.4909 32.3085 18.5662C31.8055 18.6559 31.4386 19.1375 31.4515 19.668C31.4758 20.6562 32.5029 21.3504 33.0312 21.6428C33.2243 21.7497 33.4522 21.7497 33.6453 21.6428C34.1736 21.3504 35.2007 20.6563 35.225 19.668C35.238 19.1375 34.8711 18.6559 34.368 18.5662H34.3681Z" stroke="#A03259" stroke-linecap="round" stroke-linejoin="round"/>
<path d="M31.6273 7.52138C31.5141 7.27252 31.4512 6.99764 31.4512 6.70209C31.4512 5.61835 32.2941 7.35538 33.3383 7.35538C34.3825 7.35538 35.2254 5.61835 35.2254 6.70209C35.2254 7.15321 35.0807 7.56798 34.8354 7.89471" stroke="#A03259" stroke-linecap="round" stroke-linejoin="round"/>
<ellipse cx="26.4083" cy="10.7884" rx="0.629032" ry="0.634615" fill="#A03259"/>
<path d="M4.27539 12.908C6.01332 14.6468 8.48784 15.6432 10.931 15.4972" stroke="#A03259" stroke-linecap="round" stroke-linejoin="round"/>
<path d="M7.28516 17.5725C8.49416 18.6767 10.1313 19.3177 11.7684 19.2669" stroke="#A03259" stroke-linecap="round" stroke-linejoin="round"/>
<path d="M0.642578 22.8905C3.4194 21.9132 5.957 20.2632 7.98455 18.1245" stroke="#A03259" stroke-linecap="round" stroke-linejoin="round"/>
<path d="M2.50436 24.5127C3.13995 24.6693 3.86091 24.7687 4.5409 24.7687C4.90178 24.7687 5.25242 24.863 5.57961 25.0167C8.01891 26.1624 11.085 27.0566 13.7584 26.8444C17.0011 26.5778 19.9606 24.6549 22.0574 22.1419C23.6648 20.2133 25.3658 17.1748 26.3521 14.4328C26.4703 14.1043 26.7112 13.8406 27.0293 13.702C28.1452 13.2157 28.927 12.0927 28.927 10.7886C28.927 10.338 28.8326 9.91281 28.6689 9.5257C28.1115 8.23426 26.7216 7.38741 25.1884 7.66999C23.9409 7.89999 22.9236 8.91184 22.6884 10.1692C22.5575 10.8692 22.6542 11.5357 22.9156 12.1101C23.3418 13.0466 23.2426 14.1362 22.5546 14.8979C21.7528 15.7855 20.7683 16.4576 19.9227 16.7349C18.4304 17.2172 16.5981 16.773 15.704 15.4657C14.9673 14.3869 14.961 12.9717 14.4887 11.7469C13.8276 10.0397 12.2722 8.82128 10.6163 8.05974C8.96021 7.30454 7.15938 6.92377 5.42783 6.35897C3.6962 5.78781 1.96465 4.99454 0.77461 3.60474C0.459735 5.0707 0.642334 6.70801 1.44839 7.97089C2.24807 9.22743 3.5641 10.154 5.01231 10.4776" stroke="#A03259" stroke-linecap="round" stroke-linejoin="round"/>
<path d="M8.4171 4.60087C8.32274 3.19202 8.85113 1.7451 9.71919 0.634521C10.191 2.41144 11.405 3.88375 12.7197 5.15933C14.0344 6.42856 15.4874 7.56452 16.6511 8.97337C17.8148 10.3886 18.6892 12.1655 18.5445 13.9932C18.5319 14.1201 18.5194 14.247 18.5005 14.3739" stroke="#A03259" stroke-linecap="round" stroke-linejoin="round"/>
<path d="M28.6893 9.57642L37.1121 10.7885L31.325 11.9562L28.4062 12.5464" stroke="#A03259" stroke-linecap="round" stroke-linejoin="round"/>
<path d="M3.14453 28.5578C5.20147 28.5514 7.35905 27.3964 8.63598 26.178" stroke="#A03259" stroke-linecap="round" stroke-linejoin="round"/>
<path d="M1.88672 27.9231L3.14478 28.5577C3.14478 28.5577 2.51575 30.4616 1.88672 30.4616" stroke="#A03259" stroke-linecap="round" stroke-linejoin="round"/>
<path d="M6.76172 30.379C8.24623 29.5857 10.039 28.0309 10.6428 26.6602" stroke="#A03259" stroke-linecap="round" stroke-linejoin="round"/>
<path d="M5.51172 30.4272L6.76466 30.3811C6.76466 30.3811 6.91976 32.3654 6.52176 32.3654" stroke="#A03259" stroke-linecap="round" stroke-linejoin="round"/>
<path d="M34.8549 13.8284C36.3331 15.6688 38.3712 18.5245 38.3712 20.3078C38.3712 23.1128 36.1192 25.3847 33.3389 25.3847C30.5586 25.3847 28.3066 23.1128 28.3066 20.3078C28.3066 18.7466 29.8666 16.3605 31.2568 14.5582" stroke="#A03259" stroke-linecap="round" stroke-linejoin="round"/>
</g>
<defs>
<clipPath id="clip0_4547_5214">
<rect width="39" height="33" fill="white"/>
</clipPath>
</defs>
</svg>
