<svg width="40" height="25" viewBox="0 0 40 25" fill="none" xmlns="http://www.w3.org/2000/svg">
<g clip-path="url(#clip0_4547_5180)">
<path d="M17.4688 9.07853C17.996 7.29681 18.974 5.6558 20.2966 4.33252C22.4182 2.21052 25.2397 1.04175 28.2404 1.04175H28.2412C31.242 1.04192 34.063 2.2107 36.1846 4.33252C38.3066 6.45434 39.4755 9.27575 39.4759 12.2766C39.4759 15.2776 38.3074 18.099 36.1854 20.221C34.0634 22.343 31.2416 23.5116 28.2407 23.5116H28.2403C25.2395 23.5116 22.4181 22.343 20.2965 20.221C19.392 19.3168 18.656 18.279 18.1079 17.1364" stroke="#A03259" stroke-linecap="round" stroke-linejoin="round"/>
<path d="M22.666 9.59309C22.8442 9.23273 23.0597 8.88363 23.3137 8.55218C25.4281 5.79252 29.382 5.26805 32.1432 7.38367C34.9044 9.49929 35.4273 13.4527 33.3122 16.2131C31.1974 18.9748 27.2443 19.4976 24.4835 17.3829C23.8889 16.9278 23.3981 16.3869 23.0148 15.7917" stroke="#A03259" stroke-linecap="round" stroke-linejoin="round"/>
<path d="M19.5637 15.296H19.5601C17.536 15.296 15.9482 14.2489 15.9453 12.9122C15.945 11.5737 17.5328 10.5233 19.5605 10.5208C21.5873 10.5208 23.1756 11.5681 23.1788 12.9052C23.1792 13.5712 22.7843 14.1863 22.0668 14.6382C21.3935 15.062 20.5046 15.2957 19.5636 15.2961L19.5637 15.296Z" stroke="#A03259" stroke-linecap="round" stroke-linejoin="round"/>
<path d="M15.9516 13.1659C15.1274 12.2745 13.4608 12.0146 12.2049 13.1491C11.6623 13.6391 10.9773 13.8921 10.2052 13.8921C10.06 13.8921 9.91187 13.8831 9.76103 13.8652C8.64387 13.7322 7.6896 13.146 7.35938 12.6624" stroke="#A03259" stroke-linecap="round" stroke-linejoin="round"/>
<path d="M15.2937 23.9613H15.2897C13.6717 23.9613 12.4024 23.1141 12.4004 22.0325C12.4004 20.9487 13.67 20.0988 15.2909 20.0969C16.9121 20.0969 18.1817 20.9445 18.1842 22.0265C18.1846 22.5705 17.8651 23.0713 17.2845 23.4368C16.7484 23.7743 16.0413 23.9606 15.2937 23.9613V23.9613Z" stroke="#A03259" stroke-linecap="round" stroke-linejoin="round"/>
<path d="M12.4068 22.2601C11.7849 21.5879 10.5261 21.3925 9.57661 22.2506C9.13965 22.6449 8.5895 22.8484 7.96948 22.8484C7.8527 22.8484 7.73349 22.8411 7.61235 22.8267C6.7207 22.72 5.95701 22.2483 5.69141 21.8584" stroke="#A03259" stroke-linecap="round" stroke-linejoin="round"/>
<path d="M10.1261 8.1091H10.1233C8.50408 8.1091 7.23443 7.26174 7.23242 6.1803C7.23242 5.09642 8.50207 4.24652 10.1229 4.24469C11.7438 4.24469 13.0138 5.09223 13.0166 6.1741C13.017 7.25798 11.7473 8.10762 10.1261 8.1091Z" stroke="#A03259" stroke-linecap="round" stroke-linejoin="round"/>
<path d="M7.23887 6.40757C6.61762 5.7354 5.35802 5.53994 4.40864 6.39813C3.97159 6.79238 3.42144 6.99589 2.80151 6.99589C2.68474 6.99589 2.5656 6.98864 2.44438 6.97422C1.55273 6.8675 0.789124 6.39578 0.523438 6.00589" stroke="#A03259" stroke-linecap="round" stroke-linejoin="round"/>
</g>
<defs>
<clipPath id="clip0_4547_5180">
<rect width="40" height="23.9676" fill="white" transform="translate(0 0.517822)"/>
</clipPath>
</defs>
</svg>
