<svg width="71" height="71" viewBox="0 0 71 71" fill="none" xmlns="http://www.w3.org/2000/svg">
<g clip-path="url(#clip0_4630_4779)">
<circle cx="35.5" cy="35.5" r="35.5" fill="black"/>
<path d="M35.1923 32.4003C31.8194 32.5193 28.8754 31.7186 26.3784 29.8025C22.6349 26.9298 23.446 21.9294 27.8594 20.0425C28.6717 19.6952 29.1519 19.8826 29.5647 20.4201C30.5961 21.7634 31.5093 21.3538 32.6079 20.4403C34.9195 18.5181 35.029 18.4889 37.1191 20.5396C38.2294 21.6287 39.1071 21.4969 39.9831 20.5228C40.9899 19.4035 41.9026 19.6458 43.0483 20.3377C47.3699 22.9495 47.5044 27.5419 43.2654 30.2923C40.8162 31.8813 38.0599 32.5512 35.1929 32.4003H35.1923Z" fill="#DA86B8"/>
<path d="M52.8988 47.1562C56.9961 43.9552 58.6717 39.2927 56.6412 36.7421C54.6107 34.1915 49.6432 34.7187 45.5458 37.9197C41.4485 41.1207 39.773 45.7832 41.8034 48.3338C43.8339 50.8844 48.8015 50.3572 52.8988 47.1562Z" fill="#71C166"/>
<path d="M28.4762 45.1607C30.5066 42.6102 28.8311 37.9476 24.7338 34.7466C20.6364 31.5457 15.6689 31.0184 13.6384 33.569C11.6079 36.1196 13.2835 40.7822 17.3808 43.9831C21.4781 47.1841 26.4457 47.7113 28.4762 45.1607Z" fill="#71C166"/>
<path d="M37.2575 35.1052H33.1111C32.5266 35.1052 32.0527 35.5131 32.0527 36.0162V52.089C32.0527 52.5921 32.5266 53 33.1111 53H37.2575C37.842 53 38.3159 52.5921 38.3159 52.089V36.0162C38.3159 35.5131 37.842 35.1052 37.2575 35.1052Z" fill="#71C166"/>
</g>
<defs>
<clipPath id="clip0_4630_4779">
<rect width="71" height="71" fill="white"/>
</clipPath>
</defs>
</svg>
