<svg width="40" height="40" viewBox="0 0 40 40" fill="none" xmlns="http://www.w3.org/2000/svg">
<path d="M23.0008 27.7632C23.9988 27.7632 22.3283 30.36 19.9998 30.36C17.6712 30.36 16.015 27.7632 17.013 27.7632H23.0008Z" stroke="#A03259" stroke-linecap="round" stroke-linejoin="round"/>
<path d="M29.1816 20.8661C30.7712 20.8661 32.343 22.314 32.343 23.8977C32.343 25.4814 31.1294 26.8607 29.5398 26.8607" stroke="#A03259" stroke-linecap="round" stroke-linejoin="round"/>
<path d="M10.4746 26.8605C11.6032 31.1518 15.4432 34.3113 20.0066 34.3113C24.57 34.3113 28.4101 31.1518 29.5386 26.8605" stroke="#A03259" stroke-linecap="round" stroke-linejoin="round"/>
<path d="M10.8136 20.9224C9.22398 20.9224 7.67188 22.3139 7.67188 23.8976C7.67188 25.4813 8.88543 26.8607 10.475 26.8607" stroke="#A03259" stroke-linecap="round" stroke-linejoin="round"/>
<path d="M29.1815 20.866C28.22 18.118 26.0494 15.9345 23.3047 14.9478" stroke="#A03259" stroke-linecap="round" stroke-linejoin="round"/>
<path d="M10.8145 20.9224C11.5573 18.7561 13.0801 16.9833 14.9843 15.7691C15.8962 15.1878 17.1296 14.7802 17.1296 14.7802" stroke="#A03259" stroke-linecap="round" stroke-linejoin="round"/>
<path d="M17.5395 17.6328C16.9898 17.1702 15.5208 14.8367 19.1842 13.5577C21.0432 12.9086 21.0102 11.1127 21.0102 11.1127C21.0102 11.1127 23.6962 13.0312 22.6378 15.6187C21.8139 17.6332 19.3292 19.1391 17.5395 17.6328Z" stroke="#A03259" stroke-linecap="round" stroke-linejoin="round"/>
<path d="M16.0599 23.9474C16.7866 23.9474 17.3757 23.3583 17.3757 22.6316C17.3757 21.9049 16.7866 21.3158 16.0599 21.3158C15.3332 21.3158 14.7441 21.9049 14.7441 22.6316C14.7441 23.3583 15.3332 23.9474 16.0599 23.9474Z" stroke="#A03259" stroke-linecap="round" stroke-linejoin="round"/>
<path d="M23.9545 23.9474C24.6812 23.9474 25.2703 23.3583 25.2703 22.6316C25.2703 21.9049 24.6812 21.3158 23.9545 21.3158C23.2278 21.3158 22.6387 21.9049 22.6387 22.6316C22.6387 23.3583 23.2278 23.9474 23.9545 23.9474Z" stroke="#A03259" stroke-linecap="round" stroke-linejoin="round"/>
<path d="M35.0071 15.3948V39.4737H5.13867V15.3948" stroke="#A03259" stroke-linecap="round" stroke-linejoin="round"/>
<path d="M39.4826 20.0029L20.002 0.526367H20.006L0.525391 20.0029" stroke="#A03259" stroke-linecap="round" stroke-linejoin="round"/>
</svg>
