<svg width="46" height="40" viewBox="0 0 46 40" fill="none" xmlns="http://www.w3.org/2000/svg">
<g clip-path="url(#clip0_4547_4486)">
<path d="M20.2445 14.0416C19.7766 12.2344 18.8462 8.15088 14.8135 7.28123C10.7789 6.41112 7.15726 9.79669 7.19561 13.051C7.23397 16.3053 10.9124 19.6183 13.2437 20.0915" stroke="#FBF9F9" stroke-linecap="round" stroke-linejoin="round"/>
<path d="M21.2944 20.403C21.2944 20.403 18.9139 18.3918 15.6226 18.8899C12.3312 19.3881 12.6491 21.3751 14.0526 23.9018C15.4561 26.4286 20.9027 30.8206 26.0665 29.6864C31.2303 28.5525 34.8755 25.5136 31.1609 20.1031C34.036 20.6083 36.122 14.2672 34.5046 13.1058C32.8871 11.9441 31.0609 12.8929 31.3026 15.6905C29.5423 13.8724 26.6776 13.9885 24.5902 14.7594" stroke="#FBF9F9" stroke-linecap="round" stroke-linejoin="round"/>
<path d="M18.25 24.2159C18.25 24.2159 24.5255 24.6399 24.6886 21.86C24.8515 19.0801 24.5494 16.8811 24.3266 15.2835C24.1037 13.6858 23.769 12.5411 22.5898 12.398C21.1741 12.2261 19.9835 13.4703 20.1964 15.5344C20.4271 17.7717 19.3266 19.3099 19.3266 19.3099" stroke="#FBF9F9" stroke-linecap="round" stroke-linejoin="round"/>
<path d="M28.1996 24.6923C28.1996 24.6923 27.067 22.5654 24.9043 22.4556" stroke="#FBF9F9" stroke-linecap="round" stroke-linejoin="round"/>
<path d="M31.1602 20.1032C31.1602 20.1032 29.5261 18.1067 26.9844 18.2854" stroke="#FBF9F9" stroke-linecap="round" stroke-linejoin="round"/>
<path d="M21.94 2.73066C5.90626 -6.80478 -17.0773 17.4005 22.5738 39.4053C65.1621 16.2815 35.1117 -7.53826 23.4296 5.6646C21.2268 8.05474 20.509 10.7991 20.509 12.9996" stroke="#FBF9F9" stroke-linecap="round" stroke-linejoin="round"/>
</g>
<defs>
<clipPath id="clip0_4547_4486">
<rect width="45.2521" height="40" fill="white"/>
</clipPath>
</defs>
</svg>
