<svg width="38" height="41" viewBox="0 0 38 41" fill="none" xmlns="http://www.w3.org/2000/svg">
<path d="M15.5893 17.2519C14.2323 16.1984 12.3222 17.7184 11.8462 18.3021C11.6108 18.5907 9.81635 20.7215 8.13342 22.7288C7.16206 23.8874 6.23683 25.2074 5.62316 26.6877C4.78439 28.7113 3.99897 32.765 1 35.2386" stroke="#A03259" stroke-linecap="round" stroke-linejoin="round"/>
<path d="M11.6094 22.8224C11.6094 22.8224 15.5655 17.9522 15.9304 17.5168C16.2953 17.0815 17.7098 16.1435 19.067 17.1971" stroke="#A03259" stroke-linecap="round" stroke-linejoin="round"/>
<path d="M14.1836 23.4829C14.1836 23.4829 18.3803 18.477 19.0705 17.6539C19.8003 16.7833 20.906 16.496 21.5995 17.0345C22.64 17.8423 21.2411 19.5109 21.2411 19.5109" stroke="#A03259" stroke-linecap="round" stroke-linejoin="round"/>
<path d="M16.4707 25.1999C16.4707 25.1999 20.3597 20.5611 20.7514 20.0939C21.52 19.177 22.468 18.8111 23.2935 19.4518C24.2692 20.2092 22.6424 22.1472 21.2621 23.7936C20.8703 24.2609 16.5803 29.378 16.5803 29.378" stroke="#A03259" stroke-linecap="round" stroke-linejoin="round"/>
<path d="M17.9868 27.7007C19.5126 25.7534 22.4792 26.7515 19.5937 30.3529C18.5415 31.6662 17.1273 33.9602 14.9573 34.8738C12.7872 35.7875 9.09979 37.3372 6.91016 39.9489" stroke="#A03259" stroke-linecap="round" stroke-linejoin="round"/>
<path d="M6.34765 11.6796C3.99783 13.0304 4.32766 14.9615 4.96722 15.9454C5.2048 16.3109 8.99839 21.6992 8.99839 21.6992" stroke="#A03259" stroke-linecap="round" stroke-linejoin="round"/>
<path d="M10.0406 15.9449C10.0406 15.9449 6.242 10.3149 6.00533 9.93938C5.53384 9.19141 5.23187 6.89652 8.10219 6.76367" stroke="#A03259" stroke-linecap="round" stroke-linejoin="round"/>
<path d="M13.5158 14.0514C13.5158 14.0514 8.6423 6.3207 8.3423 5.84501C7.39919 4.34907 8.62982 2.40583 10.0741 2.43539C11.9036 2.47271 13.6304 5.14868 13.6304 5.14868" stroke="#A03259" stroke-linecap="round" stroke-linejoin="round"/>
<path d="M18.9032 13.514C18.9032 13.514 13.632 5.15261 13.2679 4.57508C12.7619 3.77218 12.2357 2.03262 14.1362 1.18925C16.0165 0.354816 17.6883 2.50253 18.1943 3.30543C18.7004 4.10832 24.504 12.8546 24.504 12.8546" stroke="#A03259" stroke-linecap="round" stroke-linejoin="round"/>
<path d="M27.8381 21.21C27.8381 21.21 25.407 17.3242 24.5886 16.016C23.7702 14.7079 24.3072 12.6792 25.1789 11.7288C26.0505 10.7783 27.619 10.4197 29.0268 12.6486C30.6208 15.172 33.1426 18.802 33.4676 21.6798C34.0662 26.9814 35.3629 34.7619 37.308 36.707" stroke="#A03259" stroke-linecap="round" stroke-linejoin="round"/>
<path d="M17.8418 32.5923C17.8418 32.5923 20.1448 36.32 23.6841 38.6342" stroke="#A03259" stroke-linecap="round" stroke-linejoin="round"/>
</svg>
